<svg xmlns="http://www.w3.org/2000/svg" viewBox="0 0 440 440"><defs><linearGradient id="cream"><stop stop-color="#bdb5a1"/><stop offset=".4" stop-color="#e6dfcc"/><stop offset="1" stop-color="#c7bea7"/></linearGradient><linearGradient id="olive"><stop stop-color="#596749"/><stop offset=".4" stop-color="#9ba387"/><stop offset="1" stop-color="#788568"/></linearGradient><linearGradient id="clay"><stop stop-color="#baa68b"/><stop offset=".4" stop-color="#e1cfb2"/><stop offset="1" stop-color="#b9a48a"/></linearGradient><linearGradient id="dark"><stop stop-color="#20271f"/><stop offset=".5" stop-color="#56594d"/><stop offset="1" stop-color="#272d24"/></linearGradient><radialGradient id="bg"><stop stop-color="#f4f2eb"/><stop offset="1" stop-color="#e4e2d9"/></radialGradient><filter id="blur"><feGaussianBlur stdDeviation="8"/></filter><pattern id="weave" width="5" height="5" patternUnits="userSpaceOnUse"><rect width="5" height="5" fill="#8f987e"/><path d="M0 0h5v5" fill="none" stroke="#b5bca5" stroke-width="1"/></pattern></defs><rect width="440" height="440" fill="url(#bg)"/><ellipse cx="225" cy="361" rx="121" ry="13" fill="#6b6950" opacity=".16" filter="url(#blur)"/><g transform="translate(46 155) rotate(-9 175 65)"><rect width="348" height="142" rx="13" fill="#b9b5a8"/><rect x="3" y="-5" width="342" height="136" rx="13" fill="#dedccf"/><rect x="13" y="8" width="24" height="23" rx="3" fill="#babfaf" stroke="#c3c2b5"/><path d="M20 15h5" stroke="#a5aa9c"/><rect x="42" y="8" width="24" height="23" rx="3" fill="#babfaf" stroke="#c3c2b5"/><path d="M49 15h5" stroke="#a5aa9c"/><rect x="71" y="8" width="24" height="23" rx="3" fill="#babfaf" stroke="#c3c2b5"/><path d="M78 15h5" stroke="#a5aa9c"/><rect x="100" y="8" width="24" height="23" rx="3" fill="#babfaf" stroke="#c3c2b5"/><path d="M107 15h5" stroke="#a5aa9c"/><rect x="129" y="8" width="24" height="23" rx="3" fill="#babfaf" stroke="#c3c2b5"/><path d="M136 15h5" stroke="#a5aa9c"/><rect x="158" y="8" width="24" height="23" rx="3" fill="#babfaf" stroke="#c3c2b5"/><path d="M165 15h5" stroke="#a5aa9c"/><rect x="187" y="8" width="24" height="23" rx="3" fill="#babfaf" stroke="#c3c2b5"/><path d="M194 15h5" stroke="#a5aa9c"/><rect x="216" y="8" width="24" height="23" rx="3" fill="#babfaf" stroke="#c3c2b5"/><path d="M223 15h5" stroke="#a5aa9c"/><rect x="245" y="8" width="24" height="23" rx="3" fill="#babfaf" stroke="#c3c2b5"/><path d="M252 15h5" stroke="#a5aa9c"/><rect x="274" y="8" width="24" height="23" rx="3" fill="#babfaf" stroke="#c3c2b5"/><path d="M281 15h5" stroke="#a5aa9c"/><rect x="303" y="8" width="24" height="23" rx="3" fill="#6b765b" stroke="#c3c2b5"/><path d="M310 15h5" stroke="#a5aa9c"/><rect x="13" y="36" width="24" height="23" rx="3" fill="#f2efe5" stroke="#c3c2b5"/><path d="M20 43h5" stroke="#a5aa9c"/><rect x="42" y="36" width="24" height="23" rx="3" fill="#f2efe5" stroke="#c3c2b5"/><path d="M49 43h5" stroke="#a5aa9c"/><rect x="71" y="36" width="24" height="23" rx="3" fill="#f2efe5" stroke="#c3c2b5"/><path d="M78 43h5" stroke="#a5aa9c"/><rect x="100" y="36" width="24" height="23" rx="3" fill="#f2efe5" stroke="#c3c2b5"/><path d="M107 43h5" stroke="#a5aa9c"/><rect x="129" y="36" width="24" height="23" rx="3" fill="#f2efe5" stroke="#c3c2b5"/><path d="M136 43h5" stroke="#a5aa9c"/><rect x="158" y="36" width="24" height="23" rx="3" fill="#f2efe5" stroke="#c3c2b5"/><path d="M165 43h5" stroke="#a5aa9c"/><rect x="187" y="36" width="24" height="23" rx="3" fill="#f2efe5" stroke="#c3c2b5"/><path d="M194 43h5" stroke="#a5aa9c"/><rect x="216" y="36" width="24" height="23" rx="3" fill="#f2efe5" stroke="#c3c2b5"/><path d="M223 43h5" stroke="#a5aa9c"/><rect x="245" y="36" width="24" height="23" rx="3" fill="#f2efe5" stroke="#c3c2b5"/><path d="M252 43h5" stroke="#a5aa9c"/><rect x="274" y="36" width="24" height="23" rx="3" fill="#f2efe5" stroke="#c3c2b5"/><path d="M281 43h5" stroke="#a5aa9c"/><rect x="303" y="36" width="24" height="23" rx="3" fill="#6b765b" stroke="#c3c2b5"/><path d="M310 43h5" stroke="#a5aa9c"/><rect x="13" y="64" width="24" height="23" rx="3" fill="#f2efe5" stroke="#c3c2b5"/><path d="M20 71h5" stroke="#a5aa9c"/><rect x="42" y="64" width="24" height="23" rx="3" fill="#f2efe5" stroke="#c3c2b5"/><path d="M49 71h5" stroke="#a5aa9c"/><rect x="71" y="64" width="24" height="23" rx="3" fill="#f2efe5" stroke="#c3c2b5"/><path d="M78 71h5" stroke="#a5aa9c"/><rect x="100" y="64" width="24" height="23" rx="3" fill="#f2efe5" stroke="#c3c2b5"/><path d="M107 71h5" stroke="#a5aa9c"/><rect x="129" y="64" width="24" height="23" rx="3" fill="#f2efe5" stroke="#c3c2b5"/><path d="M136 71h5" stroke="#a5aa9c"/><rect x="158" y="64" width="24" height="23" rx="3" fill="#f2efe5" stroke="#c3c2b5"/><path d="M165 71h5" stroke="#a5aa9c"/><rect x="187" y="64" width="24" height="23" rx="3" fill="#f2efe5" stroke="#c3c2b5"/><path d="M194 71h5" stroke="#a5aa9c"/><rect x="216" y="64" width="24" height="23" rx="3" fill="#f2efe5" stroke="#c3c2b5"/><path d="M223 71h5" stroke="#a5aa9c"/><rect x="245" y="64" width="24" height="23" rx="3" fill="#f2efe5" stroke="#c3c2b5"/><path d="M252 71h5" stroke="#a5aa9c"/><rect x="274" y="64" width="24" height="23" rx="3" fill="#f2efe5" stroke="#c3c2b5"/><path d="M281 71h5" stroke="#a5aa9c"/><rect x="303" y="64" width="24" height="23" rx="3" fill="#6b765b" stroke="#c3c2b5"/><path d="M310 71h5" stroke="#a5aa9c"/><rect x="13" y="92" width="24" height="23" rx="3" fill="#f2efe5" stroke="#c3c2b5"/><path d="M20 99h5" stroke="#a5aa9c"/><rect x="42" y="92" width="24" height="23" rx="3" fill="#f2efe5" stroke="#c3c2b5"/><path d="M49 99h5" stroke="#a5aa9c"/><rect x="71" y="92" width="24" height="23" rx="3" fill="#f2efe5" stroke="#c3c2b5"/><path d="M78 99h5" stroke="#a5aa9c"/><rect x="100" y="92" width="24" height="23" rx="3" fill="#f2efe5" stroke="#c3c2b5"/><path d="M107 99h5" stroke="#a5aa9c"/><rect x="129" y="92" width="24" height="23" rx="3" fill="#f2efe5" stroke="#c3c2b5"/><path d="M136 99h5" stroke="#a5aa9c"/><rect x="158" y="92" width="24" height="23" rx="3" fill="#f2efe5" stroke="#c3c2b5"/><path d="M165 99h5" stroke="#a5aa9c"/><rect x="187" y="92" width="24" height="23" rx="3" fill="#f2efe5" stroke="#c3c2b5"/><path d="M194 99h5" stroke="#a5aa9c"/><rect x="216" y="92" width="24" height="23" rx="3" fill="#f2efe5" stroke="#c3c2b5"/><path d="M223 99h5" stroke="#a5aa9c"/><rect x="245" y="92" width="24" height="23" rx="3" fill="#f2efe5" stroke="#c3c2b5"/><path d="M252 99h5" stroke="#a5aa9c"/><rect x="274" y="92" width="24" height="23" rx="3" fill="#f2efe5" stroke="#c3c2b5"/><path d="M281 99h5" stroke="#a5aa9c"/><rect x="303" y="92" width="24" height="23" rx="3" fill="#6b765b" stroke="#c3c2b5"/><path d="M310 99h5" stroke="#a5aa9c"/></g></svg>